<svg xmlns="http://www.w3.org/2000/svg" xmlns:svgjs="http://svgjs.com/svgjs" xmlns:xlink="http://www.w3.org/1999/xlink" width="288" height="288"><svg xmlns="http://www.w3.org/2000/svg" width="288" height="288" viewBox="0 0 500 92.355"><defs><linearGradient id="a" x1="249.08" x2="249.08" y1="1.221" y2="61.398" gradientUnits="userSpaceOnUse"><stop class="stopColor009687 svgShape" offset="0" stop-color="#424444"/><stop class="stopColor00302b svgShape" offset="1" stop-color="#979c9c"/></linearGradient></defs><path fill="url(#a)" d="M -3.996,39.674 C 8.273617,49.160161 35.005192,56.203995 82.221078,55.342874 129.43696,54.481753 207.42049,40.875492 276.53351,31.064139 345.64653,21.252786 456.00551,7.1441756 497.588,1.283 c 41.58249,-5.8611756 58.59922,9.526128 22.4,11.065 C 483.78878,13.886872 395.42397,17.664198 328.57509,26.666859 261.72621,35.66952 174.3037,56.887679 121.88359,61.404474 69.463477,65.92127 40.62983,63.238679 15.79525,56.147125 -9.0393296,49.055571 -17.563513,36.527873 -20.827733,32.373831 -24.091952,28.219789 -16.265617,30.187839 -3.996,39.674 Z"/><path fill="#515252" d="M -17.566 96.408 L 511.464 93.956 L 512.077 14.16 C 469.043 16.127 424.67 19.39 371.361 23.79 C 318.053 28.19 214.33 47.844 158.734 58.537 C 103.138 69.23 57.993 65.275 27.883 60.798 C -2.227 56.321 -7.734 44.147 -18.596 43.062 L -17.566 96.408 Z" class="color0c92d6 svgShape"/></svg></svg>