<svg id="svg" version="1.1" xmlns="http://www.w3.org/2000/svg" xmlns:xlink="http://www.w3.org/1999/xlink" width="400" height="66.70268323428778" viewBox="0, 0, 400,66.70268323428778"><g id="svgg"><path id="path0" d="M164.573 17.125 C 164.513 17.469,164.286 18.387,164.067 19.167 C 163.849 19.946,163.600 20.958,163.513 21.417 C 163.427 21.875,163.306 22.381,163.244 22.542 C 163.138 22.816,163.456 22.833,168.524 22.833 L 173.918 22.833 174.440 20.875 C 174.997 18.787,175.500 16.758,175.500 16.598 C 175.500 16.544,173.066 16.500,170.091 16.500 L 164.682 16.500 164.573 17.125 M355.497 16.958 C 355.495 17.210,355.303 18.054,355.071 18.833 C 354.838 19.612,354.584 20.625,354.505 21.083 C 354.427 21.542,354.310 22.123,354.247 22.375 L 354.131 22.833 359.524 22.831 L 364.917 22.829 365.313 21.289 C 365.858 19.170,366.315 17.141,366.325 16.792 C 366.333 16.520,365.967 16.500,360.917 16.500 L 355.500 16.500 355.497 16.958 M383.675 17.637 C 383.489 18.263,383.291 19.031,383.235 19.345 C 382.891 21.271,382.096 23.674,381.844 23.548 C 381.381 23.315,371.175 23.294,370.342 23.524 C 367.775 24.233,365.487 26.592,365.072 28.958 C 365.012 29.302,364.746 30.324,364.481 31.230 C 364.217 32.136,363.999 33.036,363.997 33.230 C 363.995 33.424,363.772 34.333,363.500 35.250 C 362.378 39.035,362.881 41.548,365.000 42.736 L 365.917 43.250 371.454 43.300 C 375.208 43.334,377.100 43.292,377.329 43.169 C 377.556 43.047,377.667 43.045,377.667 43.161 C 377.667 43.276,379.408 43.333,382.913 43.333 L 388.160 43.333 388.232 42.958 C 388.402 42.065,388.651 40.988,388.992 39.667 C 389.472 37.811,390.411 34.089,391.031 31.583 C 391.304 30.483,391.746 28.758,392.014 27.750 C 392.282 26.742,392.501 25.816,392.501 25.693 C 392.500 25.569,392.771 24.444,393.101 23.193 C 393.432 21.941,393.919 20.092,394.185 19.083 C 394.450 18.075,394.667 17.081,394.667 16.875 L 394.667 16.500 389.340 16.500 L 384.014 16.500 383.675 17.637 M174.717 17.292 C 174.755 17.360,174.539 18.279,174.237 19.333 C 173.935 20.387,173.683 21.456,173.678 21.708 L 173.667 22.167 168.917 22.167 C 165.993 22.167,164.167 22.105,164.167 22.007 C 164.167 21.867,164.703 19.645,165.184 17.792 L 165.346 17.167 169.997 17.167 C 172.554 17.167,174.678 17.223,174.717 17.292 M365.552 17.292 C 365.591 17.360,365.406 18.204,365.141 19.167 C 364.876 20.129,364.583 21.198,364.490 21.542 L 364.320 22.167 359.565 22.167 C 355.114 22.167,354.817 22.148,354.902 21.875 C 354.952 21.715,355.227 20.646,355.514 19.500 C 355.801 18.354,356.069 17.360,356.111 17.292 C 356.152 17.223,358.277 17.167,360.833 17.167 C 363.389 17.167,365.512 17.223,365.552 17.292 M393.833 17.312 C 393.833 17.392,393.697 18.011,393.530 18.687 C 393.363 19.363,391.957 25.035,390.405 31.290 L 387.583 42.663 382.940 42.665 L 378.297 42.667 378.407 42.208 C 378.467 41.956,378.560 41.600,378.615 41.417 C 378.686 41.179,378.494 41.286,377.950 41.786 C 376.937 42.718,377.145 42.692,371.244 42.634 C 365.601 42.579,365.380 42.541,364.383 41.472 C 363.159 40.160,363.199 38.890,364.650 33.125 C 366.808 24.551,367.344 24.116,375.852 24.034 L 381.121 23.983 381.644 24.423 C 381.931 24.665,382.167 24.973,382.167 25.108 C 382.167 25.513,382.456 25.205,382.540 24.710 C 382.622 24.228,384.280 17.736,384.413 17.375 C 384.504 17.128,393.833 17.066,393.833 17.312 M231.087 19.375 C 230.821 20.178,230.342 22.036,230.249 22.625 L 230.137 23.333 228.069 23.333 C 226.035 23.333,226.000 23.340,225.997 23.708 C 225.995 23.915,225.772 24.833,225.500 25.750 C 225.228 26.667,225.005 27.623,225.003 27.875 L 225.000 28.333 226.890 28.333 L 228.781 28.333 228.458 29.625 C 226.044 39.271,226.114 38.866,226.593 40.479 C 226.895 41.498,227.832 42.531,228.890 43.011 C 229.536 43.304,230.087 43.326,236.947 43.330 L 244.310 43.333 244.589 42.375 C 244.960 41.100,245.379 39.184,245.400 38.667 L 245.417 38.250 241.375 38.205 C 239.152 38.181,237.333 38.106,237.333 38.039 C 237.334 37.788,237.868 35.366,238.243 33.917 C 238.456 33.092,238.757 31.892,238.910 31.250 C 239.064 30.608,239.302 29.690,239.440 29.208 L 239.690 28.333 243.428 28.333 C 246.522 28.333,247.167 28.293,247.167 28.100 C 247.167 27.972,247.429 26.909,247.750 25.738 C 248.071 24.568,248.333 23.548,248.333 23.472 C 248.333 23.396,246.646 23.333,244.583 23.333 C 242.521 23.333,240.835 23.315,240.836 23.292 C 240.838 23.269,241.062 22.500,241.333 21.583 C 241.605 20.667,241.829 19.748,241.830 19.542 L 241.833 19.167 236.495 19.167 C 232.372 19.167,231.140 19.214,231.087 19.375 M240.941 20.292 C 240.885 20.544,240.723 21.275,240.580 21.917 C 240.438 22.558,240.277 23.290,240.223 23.542 L 240.125 24.000 243.797 24.000 L 247.468 24.000 247.255 24.875 C 247.138 25.356,246.952 26.180,246.843 26.705 L 246.644 27.660 242.879 27.705 L 239.114 27.750 237.817 32.970 C 237.103 35.841,236.559 38.292,236.606 38.417 C 236.783 38.878,237.742 39.000,241.192 39.000 C 243.540 39.000,244.667 39.058,244.667 39.178 C 244.667 39.275,244.467 40.100,244.223 41.011 L 243.779 42.667 236.848 42.663 C 226.053 42.657,225.892 42.481,228.269 33.249 C 228.882 30.866,229.418 28.635,229.460 28.292 L 229.535 27.667 227.628 27.667 L 225.721 27.667 226.169 25.875 L 226.618 24.083 228.549 24.036 L 230.479 23.990 230.751 23.036 C 230.900 22.512,231.170 21.577,231.351 20.958 L 231.681 19.833 236.361 19.833 L 241.042 19.833 240.941 20.292 M85.772 24.208 C 85.633 24.690,85.407 25.533,85.270 26.083 C 85.132 26.633,84.757 28.133,84.436 29.417 C 84.115 30.700,83.620 32.688,83.337 33.833 C 83.054 34.979,82.598 36.779,82.325 37.833 C 82.052 38.887,81.829 39.851,81.831 39.974 C 81.832 40.097,81.564 41.222,81.234 42.474 C 80.904 43.726,80.457 45.425,80.240 46.250 C 79.870 47.661,79.334 50.099,79.333 50.375 C 79.333 50.444,81.755 50.500,84.714 50.500 L 90.095 50.500 90.270 49.625 C 90.366 49.144,90.607 48.112,90.807 47.333 C 91.006 46.554,91.331 45.255,91.530 44.446 C 91.863 43.086,91.916 42.986,92.237 43.107 C 92.806 43.322,102.647 43.373,103.485 43.165 C 105.327 42.707,108.162 40.649,108.166 39.766 C 108.166 39.683,108.358 39.211,108.592 38.716 C 108.826 38.222,109.152 37.202,109.317 36.450 C 109.655 34.906,110.171 32.822,110.783 30.520 C 111.233 28.827,111.266 26.678,110.855 25.833 C 110.251 24.592,110.054 24.401,108.667 23.708 C 108.011 23.381,97.081 23.257,96.431 23.570 C 96.200 23.681,96.145 23.669,96.232 23.528 C 96.324 23.381,95.089 23.333,91.188 23.333 L 86.024 23.333 85.772 24.208 M113.745 23.792 C 113.693 24.044,113.384 25.300,113.057 26.583 C 112.731 27.867,112.251 29.779,111.990 30.833 C 111.199 34.037,110.324 37.501,109.908 39.083 C 109.537 40.492,109.000 42.931,109.000 43.208 C 109.000 43.277,111.438 43.333,114.417 43.333 L 119.833 43.333 119.833 42.953 C 119.833 42.744,120.096 41.661,120.417 40.547 C 120.737 39.432,121.000 38.388,121.000 38.226 C 121.000 38.064,121.214 37.141,121.475 36.174 C 121.736 35.208,122.083 33.854,122.246 33.167 C 122.967 30.129,123.307 29.943,128.284 29.862 L 131.818 29.805 132.067 28.944 C 132.203 28.471,132.402 27.708,132.507 27.250 C 132.613 26.792,132.875 25.718,133.089 24.864 L 133.478 23.312 129.530 23.364 C 125.655 23.416,125.565 23.425,124.699 23.854 L 123.816 24.291 123.921 23.812 L 124.026 23.333 118.933 23.333 L 113.840 23.333 113.745 23.792 M137.583 23.567 C 135.210 24.319,133.679 26.156,132.914 29.167 C 132.786 29.671,132.458 30.983,132.185 32.083 C 131.913 33.183,131.451 35.021,131.160 36.167 C 130.237 39.798,130.493 41.456,132.145 42.549 C 133.324 43.329,133.658 43.351,143.583 43.299 L 152.917 43.250 154.060 42.667 C 155.180 42.095,156.375 40.989,156.776 40.152 C 157.279 39.104,157.832 37.440,158.075 36.240 C 158.223 35.512,158.520 34.279,158.736 33.500 C 158.952 32.721,159.172 31.821,159.226 31.500 C 159.280 31.179,159.479 30.354,159.669 29.667 C 160.553 26.470,159.826 24.386,157.542 23.571 C 156.658 23.256,138.577 23.252,137.583 23.567 M162.772 24.208 C 162.634 24.690,162.474 25.308,162.417 25.583 C 162.359 25.858,162.092 26.965,161.823 28.042 C 161.554 29.119,161.106 30.919,160.828 32.042 C 160.550 33.165,160.102 34.946,159.834 36.000 C 159.565 37.054,158.998 39.342,158.574 41.083 C 157.421 45.825,157.939 45.452,152.470 45.480 C 149.024 45.498,148.681 45.526,148.601 45.792 C 148.085 47.503,147.500 49.804,147.500 50.121 L 147.500 50.518 155.292 50.465 C 164.640 50.402,164.637 50.403,166.449 48.546 C 167.017 47.964,167.529 47.322,167.588 47.119 C 167.646 46.916,167.829 46.450,167.994 46.083 C 168.160 45.717,168.375 45.117,168.471 44.750 C 168.568 44.383,168.909 43.071,169.229 41.833 C 169.549 40.596,170.041 38.714,170.322 37.652 C 170.603 36.590,170.832 35.615,170.831 35.485 C 170.829 35.356,171.051 34.387,171.322 33.333 C 171.594 32.279,172.089 30.329,172.422 29.000 C 173.053 26.480,173.653 24.124,173.791 23.625 C 173.867 23.352,173.534 23.333,168.448 23.333 L 163.024 23.333 162.772 24.208 M178.583 23.653 C 176.246 24.515,174.682 26.457,174.089 29.231 C 173.858 30.310,173.300 32.512,172.457 35.667 C 171.463 39.386,171.724 41.515,173.298 42.514 C 174.594 43.336,174.640 43.338,186.016 43.293 L 196.737 43.250 197.051 41.917 C 197.224 41.183,197.471 40.202,197.600 39.735 C 197.728 39.269,197.833 38.725,197.833 38.527 L 197.833 38.167 190.427 38.167 C 182.170 38.167,182.679 38.254,183.005 36.897 L 183.220 36.000 191.083 36.000 L 198.945 36.000 199.223 35.003 C 199.375 34.454,199.500 33.872,199.500 33.709 C 199.500 33.546,199.679 32.849,199.897 32.161 C 201.531 27.014,201.135 24.653,198.469 23.640 C 197.232 23.169,179.863 23.181,178.583 23.653 M206.750 23.567 C 204.320 24.339,202.189 26.479,201.753 28.583 C 201.696 28.858,201.434 29.908,201.170 30.917 C 199.621 36.840,199.500 37.426,199.508 38.932 C 199.518 41.030,200.009 41.897,201.687 42.779 L 202.583 43.250 211.686 43.296 L 220.790 43.342 221.303 41.462 C 221.585 40.429,221.839 39.283,221.866 38.917 L 221.917 38.250 216.202 38.206 C 209.543 38.155,210.123 38.402,210.750 35.882 C 210.996 34.893,211.413 33.221,211.677 32.167 C 211.941 31.113,212.197 30.047,212.246 29.800 C 212.296 29.552,212.516 29.139,212.737 28.883 L 213.137 28.417 218.863 28.367 L 224.589 28.317 225.120 26.200 C 225.413 25.036,225.701 23.915,225.762 23.708 L 225.872 23.333 216.644 23.344 C 209.670 23.353,207.254 23.407,206.750 23.567 M254.250 23.567 C 251.190 24.540,249.786 25.977,248.947 29.000 C 246.824 36.646,247.552 37.500,256.193 37.500 C 260.871 37.500,261.167 37.518,261.167 37.800 C 261.167 38.490,261.059 38.500,253.641 38.500 L 246.516 38.500 246.342 39.125 C 246.247 39.469,246.168 39.906,246.168 40.096 C 246.167 40.286,245.979 41.068,245.750 41.833 C 245.521 42.599,245.333 43.250,245.333 43.279 C 245.333 43.503,265.699 43.307,266.354 43.077 C 269.270 42.052,270.967 40.153,271.586 37.220 C 271.719 36.595,271.978 35.559,272.163 34.917 C 272.971 32.120,272.423 30.248,270.539 29.364 L 269.583 28.917 264.375 28.866 C 261.510 28.838,259.167 28.760,259.167 28.691 C 259.167 28.202,259.667 28.167,266.677 28.167 L 273.788 28.167 274.237 26.582 C 274.485 25.711,274.746 24.623,274.819 24.166 L 274.950 23.333 264.933 23.344 C 257.320 23.353,254.757 23.406,254.250 23.567 M292.583 23.567 C 289.504 24.545,288.191 26.238,287.075 30.667 C 286.740 31.996,286.234 33.946,285.952 35.000 C 285.523 36.598,285.436 37.237,285.427 38.846 L 285.417 40.775 286.000 41.539 C 286.359 42.009,286.936 42.485,287.500 42.776 L 288.417 43.250 297.529 43.296 C 306.134 43.339,306.646 43.325,306.729 43.046 C 307.283 41.179,307.662 39.597,307.702 38.991 L 307.750 38.250 302.036 38.206 C 297.337 38.170,296.305 38.121,296.232 37.930 C 296.145 37.704,296.425 36.504,297.594 32.081 C 297.909 30.889,298.167 29.787,298.167 29.632 C 298.167 29.478,298.348 29.141,298.569 28.884 L 298.971 28.417 304.725 28.367 L 310.480 28.317 310.675 27.367 C 310.782 26.844,311.049 25.765,311.268 24.969 C 311.487 24.172,311.667 23.478,311.667 23.427 C 311.667 23.216,293.263 23.351,292.583 23.567 M315.333 23.648 C 313.159 24.514,311.000 27.036,311.000 28.710 C 311.000 28.881,310.737 29.932,310.417 31.047 C 310.096 32.161,309.833 33.206,309.833 33.368 C 309.833 33.530,309.601 34.470,309.316 35.457 C 308.073 39.768,308.652 42.213,311.125 43.096 C 312.116 43.449,330.009 43.433,331.021 43.077 C 332.936 42.404,333.804 41.712,334.743 40.111 C 335.179 39.366,336.326 35.741,336.331 35.091 C 336.332 34.912,336.548 33.974,336.810 33.008 C 338.613 26.364,338.364 24.594,335.482 23.577 C 334.332 23.171,316.371 23.234,315.333 23.648 M353.594 24.542 C 353.443 25.206,353.095 26.650,352.821 27.750 C 352.378 29.528,351.929 31.342,351.131 34.583 C 350.800 35.926,350.228 38.188,349.656 40.417 C 349.397 41.425,349.145 42.494,349.097 42.792 L 349.008 43.333 354.382 43.333 L 359.755 43.333 360.211 41.690 C 360.461 40.787,360.665 39.943,360.662 39.815 C 360.660 39.688,360.918 38.608,361.235 37.417 C 361.553 36.225,362.038 34.350,362.313 33.250 C 363.760 27.455,364.011 26.453,364.392 24.958 L 364.806 23.333 359.338 23.333 L 353.869 23.333 353.594 24.542 M95.322 24.541 C 95.049 25.491,95.131 25.599,95.708 25.051 C 96.846 23.972,96.806 23.978,102.633 24.033 L 107.917 24.083 108.826 24.583 C 110.948 25.750,111.021 26.920,109.377 33.438 C 107.163 42.223,106.608 42.667,97.840 42.667 C 92.417 42.667,92.356 42.656,91.927 41.635 C 91.732 41.170,91.695 41.254,91.180 43.365 C 90.882 44.585,90.501 46.071,90.332 46.667 C 90.164 47.262,89.940 48.181,89.835 48.708 L 89.643 49.667 84.905 49.667 C 82.299 49.667,80.167 49.624,80.167 49.572 C 80.167 49.483,86.262 24.917,86.440 24.292 C 86.516 24.023,86.878 24.000,91.000 24.000 L 95.477 24.000 95.322 24.541 M122.818 25.292 C 122.649 26.002,122.509 26.642,122.506 26.715 C 122.503 26.787,122.823 26.449,123.218 25.965 C 124.553 24.327,125.277 24.093,129.213 24.029 L 132.534 23.975 132.420 24.696 C 132.357 25.092,132.077 26.293,131.797 27.364 L 131.287 29.310 127.685 29.364 C 122.810 29.435,122.355 29.713,121.598 33.083 C 121.325 34.302,120.995 35.622,120.164 38.833 C 119.891 39.887,119.573 41.162,119.459 41.667 L 119.250 42.583 114.542 42.628 C 110.832 42.662,109.833 42.627,109.834 42.461 C 109.834 42.345,110.168 40.938,110.576 39.333 C 110.985 37.729,112.015 33.623,112.865 30.208 L 114.411 24.000 118.768 24.000 L 123.124 24.000 122.818 25.292 M157.819 24.500 C 159.924 25.693,159.862 27.179,157.306 36.667 C 156.438 39.886,155.361 41.456,153.500 42.211 C 152.589 42.581,152.528 42.583,143.083 42.583 L 133.583 42.583 132.838 42.166 C 130.986 41.129,130.930 39.842,132.470 33.667 C 134.131 27.003,134.705 25.764,136.583 24.791 C 138.081 24.015,138.075 24.015,147.833 24.050 L 157.083 24.083 157.819 24.500 M172.936 24.292 C 172.888 24.452,172.803 24.808,172.747 25.083 C 172.623 25.693,170.668 33.682,169.994 36.333 C 169.726 37.387,169.200 39.525,168.825 41.083 C 167.421 46.919,166.203 48.903,163.667 49.486 C 162.287 49.803,148.276 49.723,148.401 49.398 C 148.457 49.250,148.666 48.425,148.863 47.565 L 149.223 46.000 153.070 46.000 C 158.651 45.999,157.860 46.934,160.187 37.583 C 161.009 34.283,161.910 30.683,162.190 29.583 C 162.471 28.483,162.891 26.833,163.125 25.917 C 163.358 25.000,163.580 24.194,163.618 24.125 C 163.786 23.818,173.027 23.983,172.936 24.292 M197.853 24.169 C 200.513 24.908,200.759 26.069,199.402 31.474 L 198.432 35.333 190.564 35.333 L 182.695 35.333 182.402 36.578 C 181.825 39.023,181.742 38.998,190.375 38.999 L 197.000 39.000 196.998 39.375 C 196.997 39.581,196.883 40.125,196.744 40.583 C 196.604 41.042,196.414 41.700,196.321 42.046 L 196.151 42.676 185.451 42.630 L 174.750 42.583 174.056 42.212 C 172.366 41.309,172.158 40.054,173.065 36.250 C 176.147 23.326,175.276 24.018,188.500 24.008 C 193.871 24.004,197.483 24.067,197.853 24.169 M224.833 24.061 C 224.833 24.300,224.451 26.074,224.246 26.783 L 223.996 27.650 218.623 27.700 C 211.432 27.767,212.222 27.206,210.689 33.340 C 209.153 39.485,208.623 38.900,215.784 38.967 L 221.201 39.017 221.102 39.384 C 221.047 39.585,220.840 40.408,220.641 41.213 L 220.279 42.675 211.514 42.629 L 202.750 42.583 201.918 42.167 C 199.541 40.977,199.488 39.731,201.493 32.083 C 201.757 31.075,202.017 29.984,202.071 29.660 C 202.465 27.280,204.366 25.090,206.671 24.360 C 207.650 24.050,224.833 23.767,224.833 24.061 M273.687 25.708 L 273.250 27.417 266.119 27.500 C 258.289 27.591,258.780 27.518,258.566 28.633 C 258.411 29.435,258.249 29.410,264.055 29.500 C 272.142 29.626,272.673 30.096,271.189 35.833 C 270.191 39.694,269.109 41.297,266.901 42.186 L 265.917 42.583 256.069 42.629 L 246.222 42.674 246.440 41.613 C 246.560 41.029,246.754 40.259,246.872 39.901 L 247.085 39.250 254.101 39.207 C 262.070 39.157,261.707 39.225,261.736 37.790 L 261.750 37.083 256.333 36.993 C 250.312 36.892,250.171 36.868,249.206 35.769 C 248.413 34.867,248.411 33.473,249.196 30.500 C 250.086 27.127,250.473 26.441,252.125 25.305 C 253.977 24.031,254.120 24.016,264.687 24.007 L 274.124 24.000 273.687 25.708 M310.590 24.625 C 310.532 24.969,310.352 25.775,310.190 26.417 L 309.896 27.583 304.490 27.667 C 297.236 27.778,298.028 27.117,296.235 34.562 C 295.092 39.311,294.645 38.960,301.875 38.983 C 304.694 38.993,307.001 39.056,307.001 39.125 C 307.002 39.194,306.803 40.019,306.559 40.958 L 306.116 42.667 297.672 42.667 C 284.611 42.667,284.679 42.728,287.097 33.039 C 289.353 24.000,289.334 24.011,302.140 24.004 L 310.696 24.000 310.590 24.625 M335.833 24.500 C 337.720 25.548,337.747 26.891,336.015 33.705 C 333.674 42.916,334.088 42.667,321.122 42.666 C 307.845 42.664,308.126 42.908,310.491 33.417 C 311.876 27.859,312.371 26.613,313.652 25.461 C 315.284 23.994,315.205 24.003,325.833 24.046 L 335.083 24.083 335.833 24.500 M363.765 24.458 C 363.707 24.710,362.668 28.909,361.455 33.789 L 359.250 42.661 354.489 42.664 L 349.727 42.667 351.529 35.542 C 352.520 31.623,353.451 27.892,353.597 27.250 C 353.901 25.922,354.339 24.311,354.447 24.125 C 354.487 24.056,356.623 24.000,359.195 24.000 L 363.869 24.000 363.765 24.458 M95.848 27.812 C 95.154 28.007,94.856 28.665,94.069 31.750 C 92.380 38.368,92.366 38.458,93.000 38.782 C 93.673 39.126,97.270 39.073,98.000 38.708 C 98.678 38.369,98.564 38.692,99.999 33.063 C 101.106 28.721,101.175 28.001,100.500 27.815 C 99.964 27.667,96.375 27.665,95.848 27.812 M144.055 27.903 C 143.351 28.218,143.318 28.298,142.504 31.667 C 142.116 33.271,141.571 35.433,141.294 36.471 C 140.613 39.013,140.507 38.917,144.003 38.917 C 147.498 38.917,147.161 39.285,148.505 34.000 C 150.003 28.112,149.953 28.382,149.611 28.039 C 149.216 27.643,144.874 27.537,144.055 27.903 M185.583 27.780 C 184.847 27.931,184.511 28.397,184.167 29.750 C 183.980 30.483,183.786 31.215,183.736 31.375 C 183.651 31.646,183.871 31.667,186.816 31.667 C 190.455 31.667,190.093 31.844,190.582 29.816 C 190.924 28.397,190.868 28.068,190.243 27.831 C 189.833 27.675,186.288 27.636,185.583 27.780 M322.212 27.784 C 321.389 27.943,321.183 28.528,319.499 35.477 C 318.604 39.171,318.418 38.917,322.021 38.917 C 325.491 38.917,325.098 39.396,326.631 33.287 C 327.868 28.361,327.898 28.080,327.216 27.821 C 326.821 27.670,322.948 27.642,322.212 27.784 M376.500 27.781 C 375.975 27.884,375.391 28.416,375.287 28.888 C 375.243 29.087,374.707 31.151,374.094 33.475 C 372.565 39.280,372.485 39.081,376.288 38.974 C 379.066 38.896,378.885 39.118,380.146 34.250 C 381.571 28.746,381.635 28.397,381.278 28.040 C 380.988 27.749,377.601 27.565,376.500 27.781 M100.272 28.875 C 99.963 30.468,98.809 35.093,98.265 36.917 L 97.917 38.083 95.557 38.129 L 93.197 38.176 93.291 37.463 C 93.342 37.071,93.636 35.894,93.942 34.848 C 94.249 33.802,94.498 32.827,94.496 32.681 C 94.493 32.536,94.736 31.538,95.035 30.465 C 95.666 28.201,95.375 28.388,98.313 28.356 L 100.377 28.333 100.272 28.875 M149.055 28.667 C 148.977 29.374,147.742 34.373,147.050 36.792 L 146.656 38.167 144.098 38.167 L 141.540 38.167 141.873 36.792 C 142.055 36.035,142.422 34.615,142.686 33.635 C 142.950 32.656,143.167 31.726,143.167 31.570 C 143.167 30.928,143.880 28.896,144.202 28.620 C 144.679 28.213,149.101 28.255,149.055 28.667 M190.033 29.083 C 190.005 29.450,189.909 30.031,189.818 30.375 L 189.654 31.000 187.102 31.000 L 184.550 31.000 184.680 30.178 C 184.951 28.459,185.177 28.338,188.000 28.383 L 190.083 28.417 190.033 29.083 M326.918 29.208 C 326.855 29.690,326.586 30.845,326.319 31.775 C 326.052 32.705,325.834 33.605,325.835 33.775 C 325.835 33.945,325.562 35.002,325.226 36.125 L 324.617 38.167 322.041 38.167 C 320.051 38.167,319.481 38.119,319.539 37.958 C 319.580 37.844,319.818 36.962,320.068 36.000 C 320.318 35.037,320.743 33.418,321.011 32.402 C 321.280 31.386,321.500 30.393,321.500 30.197 C 321.500 28.620,321.934 28.378,324.807 28.353 L 327.031 28.333 326.918 29.208 M380.902 28.476 C 380.950 28.554,380.736 29.548,380.426 30.684 C 379.583 33.772,378.880 36.512,378.766 37.151 C 378.589 38.140,378.517 38.167,375.980 38.167 C 374.538 38.167,373.667 38.103,373.667 37.999 C 373.667 37.834,373.892 36.965,375.076 32.549 C 375.401 31.339,375.667 30.207,375.667 30.033 C 375.667 29.432,376.043 28.640,376.396 28.497 C 376.860 28.310,380.788 28.291,380.902 28.476 M273.618 35.292 C 273.581 35.360,273.346 36.204,273.097 37.167 C 272.848 38.129,272.424 39.748,272.155 40.765 C 271.887 41.781,271.667 42.776,271.667 42.975 L 271.667 43.338 277.029 43.294 L 282.390 43.250 282.851 41.500 C 283.104 40.537,283.552 38.837,283.846 37.722 C 284.139 36.607,284.334 35.576,284.278 35.431 C 284.170 35.147,273.771 35.012,273.618 35.292 M337.890 35.295 C 337.784 35.362,337.647 35.717,337.584 36.084 C 337.522 36.450,337.222 37.688,336.916 38.833 C 336.611 39.979,336.282 41.292,336.184 41.750 C 336.087 42.208,335.960 42.752,335.901 42.958 L 335.794 43.333 341.223 43.333 L 346.651 43.333 346.825 42.708 C 346.920 42.365,346.997 42.008,346.996 41.917 C 346.995 41.760,347.635 39.218,348.339 36.588 C 348.576 35.704,348.602 35.396,348.450 35.299 C 348.193 35.136,338.147 35.132,337.890 35.295 M347.668 36.125 C 347.669 36.285,347.322 37.823,346.896 39.542 L 346.122 42.667 341.394 42.667 C 338.407 42.667,336.667 42.606,336.667 42.503 C 336.667 42.413,336.883 41.531,337.147 40.544 C 337.412 39.558,337.676 38.475,337.736 38.138 C 337.795 37.802,337.957 37.145,338.095 36.680 L 338.346 35.833 343.006 35.833 C 347.333 35.833,347.667 35.854,347.668 36.125 M283.415 36.375 C 283.365 36.581,282.998 38.063,282.599 39.667 L 281.874 42.583 277.187 42.628 C 273.720 42.660,272.500 42.622,272.500 42.479 C 272.500 42.373,272.852 40.871,273.282 39.143 L 274.064 36.000 278.785 36.000 L 283.506 36.000 283.415 36.375 M223.712 52.715 C 218.384 55.065,220.000 62.563,225.833 62.563 C 233.025 62.563,233.187 52.628,226.000 52.380 C 224.814 52.338,224.441 52.393,223.712 52.715 M174.500 57.500 L 174.500 62.500 175.167 62.500 L 175.833 62.500 175.833 60.980 C 175.833 59.535,175.858 59.433,176.325 58.901 L 176.816 58.341 178.450 60.418 L 180.083 62.495 180.875 62.498 C 181.824 62.500,181.841 62.411,181.073 61.474 C 180.747 61.076,180.390 60.636,180.281 60.497 C 179.630 59.667,178.567 58.402,178.450 58.317 C 178.069 58.042,177.831 57.287,178.040 57.019 C 178.633 56.259,180.585 54.067,180.766 53.957 C 180.979 53.829,181.667 52.796,181.667 52.605 C 181.667 52.547,181.336 52.500,180.931 52.500 L 180.196 52.500 178.056 54.987 L 175.917 57.474 175.871 54.987 L 175.825 52.500 175.162 52.500 L 174.500 52.500 174.500 57.500 M199.333 53.417 L 199.333 54.333 200.000 54.333 L 200.667 54.333 200.667 53.417 L 200.667 52.500 200.000 52.500 L 199.333 52.500 199.333 53.417 M243.833 57.500 L 243.833 62.500 244.500 62.500 L 245.167 62.500 245.167 57.500 L 245.167 52.500 244.500 52.500 L 243.833 52.500 243.833 57.500 M248.333 53.417 L 248.333 54.333 248.917 54.333 L 249.500 54.333 249.500 53.417 L 249.500 52.500 248.917 52.500 L 248.333 52.500 248.333 53.417 M279.500 57.500 L 279.500 62.500 280.167 62.500 L 280.833 62.500 280.833 60.333 L 280.833 58.167 283.083 58.167 L 285.333 58.167 285.333 60.333 L 285.333 62.500 286.000 62.500 L 286.667 62.500 286.667 57.500 L 286.667 52.500 286.000 52.500 L 285.333 52.500 285.333 54.667 L 285.333 56.833 283.083 56.833 L 280.833 56.833 280.833 54.667 L 280.833 52.500 280.167 52.500 L 279.500 52.500 279.500 57.500 M308.167 53.417 L 308.167 54.333 308.833 54.333 L 309.500 54.333 309.500 53.417 L 309.500 52.500 308.833 52.500 L 308.167 52.500 308.167 53.417 M312.575 52.710 C 312.531 52.826,312.515 55.057,312.539 57.669 L 312.583 62.417 313.292 62.468 L 314.000 62.519 314.000 57.510 L 314.000 52.500 313.328 52.500 C 312.941 52.500,312.622 52.589,312.575 52.710 M323.500 57.500 L 323.500 62.500 324.083 62.500 L 324.667 62.500 324.674 58.625 L 324.682 54.750 325.083 55.500 C 325.304 55.913,325.610 56.625,325.764 57.083 C 325.918 57.542,326.102 57.992,326.172 58.083 C 326.243 58.175,326.561 58.887,326.878 59.667 C 328.060 62.567,328.016 62.496,328.678 62.498 C 329.247 62.500,329.288 62.460,329.647 61.542 C 329.854 61.015,330.235 60.096,330.496 59.500 C 330.756 58.904,331.239 57.801,331.568 57.048 C 331.897 56.295,332.167 55.569,332.167 55.433 C 332.167 55.297,332.242 55.140,332.333 55.083 C 332.443 55.016,332.500 56.276,332.500 58.740 L 332.500 62.500 333.167 62.500 L 333.833 62.500 333.833 57.500 L 333.833 52.500 332.951 52.500 L 332.069 52.500 331.618 53.420 C 331.370 53.927,331.167 54.425,331.167 54.528 C 331.167 54.631,330.904 55.261,330.583 55.928 C 330.262 56.595,330.000 57.224,330.000 57.325 C 330.000 57.427,329.786 57.939,329.524 58.463 C 329.262 58.988,328.998 59.623,328.937 59.875 C 328.733 60.722,328.600 60.518,327.336 57.417 C 327.037 56.683,326.546 55.521,326.245 54.833 C 325.944 54.146,325.607 53.340,325.496 53.042 C 325.301 52.523,325.255 52.500,324.396 52.500 L 323.500 52.500 323.500 57.500 M347.833 57.500 L 347.833 62.520 348.458 62.468 L 349.083 62.417 349.167 60.750 C 349.244 59.208,349.269 59.110,349.501 59.438 C 349.639 59.633,350.106 60.195,350.538 60.688 C 350.971 61.180,351.482 61.790,351.674 62.042 C 351.973 62.432,352.145 62.500,352.845 62.500 C 353.924 62.500,353.929 62.515,352.015 60.315 L 350.363 58.417 350.765 57.991 C 350.986 57.757,351.167 57.475,351.167 57.366 C 351.167 57.256,351.228 57.167,351.303 57.167 C 351.441 57.167,353.167 55.089,353.167 54.923 C 353.167 54.768,351.531 54.826,351.472 54.983 C 351.420 55.123,350.929 55.736,349.750 57.132 L 349.250 57.724 349.167 55.153 L 349.083 52.583 348.458 52.532 L 347.833 52.480 347.833 57.500 M363.000 53.417 L 363.000 54.333 363.667 54.333 L 364.333 54.333 364.333 53.417 L 364.333 52.500 363.667 52.500 L 363.000 52.500 363.000 53.417 M393.500 57.500 L 393.500 62.500 394.083 62.500 L 394.667 62.500 394.667 57.500 L 394.667 52.500 394.083 52.500 L 393.500 52.500 393.500 57.500 M227.265 53.878 C 229.402 54.523,230.476 57.228,229.404 59.267 C 227.882 62.166,223.985 62.171,222.399 59.277 C 220.704 56.185,223.743 52.814,227.265 53.878 M185.470 54.971 C 182.728 55.951,182.123 59.672,184.374 61.714 C 186.360 63.516,191.000 62.321,191.000 60.008 C 191.000 59.548,189.692 59.832,189.220 60.395 C 187.833 62.053,185.135 61.676,184.541 59.743 L 184.365 59.167 187.790 59.167 L 191.215 59.167 191.112 58.060 C 191.055 57.452,190.896 56.796,190.759 56.602 C 189.524 54.855,187.522 54.238,185.470 54.971 M206.583 54.829 C 205.411 55.167,205.184 55.278,204.592 55.800 C 202.627 57.535,203.113 61.036,205.500 62.340 C 206.222 62.734,208.799 62.651,209.547 62.210 C 210.150 61.854,210.167 61.853,210.167 62.172 C 210.167 62.444,210.282 62.500,210.833 62.500 L 211.500 62.500 211.500 58.667 L 211.500 54.833 210.833 54.833 C 210.218 54.833,210.166 54.868,210.164 55.292 C 210.163 55.549,210.108 55.667,210.039 55.560 C 209.686 55.014,207.527 54.557,206.583 54.829 M236.208 54.980 C 235.514 55.220,235.333 55.236,235.333 55.058 C 235.333 54.907,235.114 54.833,234.667 54.833 L 234.000 54.833 234.000 58.667 L 234.000 62.500 234.652 62.500 L 235.305 62.500 235.361 59.763 C 235.424 56.680,235.563 56.317,236.772 56.090 C 238.983 55.675,239.500 56.426,239.500 60.053 L 239.500 62.500 240.167 62.500 L 240.833 62.500 240.830 59.792 C 240.825 56.124,240.540 55.480,238.678 54.933 C 237.546 54.600,237.294 54.605,236.208 54.980 M255.583 54.773 C 255.400 54.817,254.969 54.961,254.625 55.092 C 254.075 55.302,254.000 55.301,254.000 55.082 C 254.000 54.903,253.813 54.833,253.333 54.833 L 252.667 54.833 252.667 58.667 L 252.667 62.500 253.333 62.500 L 254.000 62.500 254.000 59.955 C 254.000 56.882,254.242 56.276,255.548 56.080 C 257.639 55.766,258.050 56.363,258.139 59.837 L 258.206 62.500 258.870 62.500 L 259.533 62.500 259.475 59.613 C 259.394 55.610,258.213 54.141,255.583 54.773 M264.602 54.958 C 260.930 56.182,261.496 62.056,265.338 62.584 C 267.578 62.892,270.167 61.509,270.167 60.003 C 270.167 59.538,268.750 59.833,268.305 60.392 C 266.927 62.119,264.188 61.625,263.586 59.542 L 263.478 59.167 267.010 59.167 L 270.543 59.167 270.429 58.309 C 270.059 55.519,267.441 54.013,264.602 54.958 M292.126 54.981 C 291.197 55.287,290.482 55.866,289.858 56.817 C 288.874 58.316,289.877 61.376,291.667 62.339 C 292.557 62.818,296.000 62.532,296.000 61.980 C 296.000 61.899,296.075 61.833,296.167 61.833 C 296.258 61.833,296.333 61.983,296.333 62.167 C 296.333 62.444,296.444 62.500,297.000 62.500 L 297.667 62.500 297.667 58.667 L 297.667 54.833 297.000 54.833 C 296.444 54.833,296.333 54.889,296.333 55.167 C 296.333 55.572,296.379 55.572,295.546 55.170 C 294.521 54.675,293.266 54.606,292.126 54.981 M301.837 54.959 C 299.652 56.056,300.675 59.333,303.203 59.333 C 303.490 59.333,304.000 60.024,304.000 60.413 C 304.000 61.788,301.832 61.665,301.635 60.279 C 301.594 59.992,301.453 59.906,300.958 59.865 C 299.617 59.754,300.431 62.122,301.868 62.509 C 305.302 63.434,307.140 59.359,303.832 58.153 C 302.120 57.529,301.611 56.903,302.305 56.276 C 302.848 55.784,303.534 55.961,303.895 56.686 C 304.220 57.338,305.233 57.258,305.300 56.574 C 305.436 55.179,303.342 54.202,301.837 54.959 M339.917 54.779 C 334.443 55.995,335.934 63.349,341.500 62.583 C 341.958 62.520,342.595 62.291,342.916 62.073 L 343.500 61.677 343.500 62.088 C 343.500 62.457,343.569 62.500,344.167 62.500 L 344.833 62.500 344.833 58.667 L 344.833 54.833 344.167 54.833 C 343.556 54.833,343.500 54.871,343.500 55.276 C 343.500 55.685,343.478 55.699,343.208 55.459 C 342.618 54.933,340.859 54.570,339.917 54.779 M356.625 54.974 C 354.537 55.962,355.141 58.411,357.680 59.255 C 358.608 59.563,358.905 59.959,358.748 60.678 C 358.471 61.935,356.500 61.567,356.500 60.258 C 356.500 59.866,356.442 59.833,355.754 59.833 L 355.008 59.833 355.115 60.375 C 355.450 62.074,356.041 62.583,357.676 62.583 C 360.758 62.583,361.430 59.014,358.520 58.098 C 357.298 57.714,356.746 57.202,356.899 56.595 C 357.095 55.813,358.667 55.870,358.667 56.660 C 358.667 57.261,360.025 57.362,360.139 56.769 C 360.425 55.284,358.283 54.189,356.625 54.974 M370.250 54.773 C 370.067 54.817,369.635 54.961,369.292 55.092 C 368.742 55.302,368.667 55.301,368.667 55.082 C 368.667 54.903,368.480 54.833,368.000 54.833 L 367.333 54.833 367.333 58.667 L 367.333 62.500 368.000 62.500 L 368.667 62.500 368.670 60.125 C 368.676 56.743,369.086 56.006,370.964 56.001 C 372.489 55.997,372.833 56.761,372.833 60.144 L 372.833 62.500 373.489 62.500 L 374.144 62.500 374.197 59.845 C 374.259 56.764,374.410 56.366,375.626 56.105 C 377.654 55.668,378.064 56.283,378.136 59.875 L 378.190 62.500 378.859 62.500 L 379.528 62.500 379.469 59.625 C 379.389 55.725,379.069 55.128,376.864 54.755 C 376.027 54.614,374.420 55.038,373.875 55.543 C 373.662 55.741,373.500 55.804,373.500 55.690 C 373.500 55.236,371.118 54.564,370.250 54.773 M384.873 54.942 C 381.708 55.910,381.200 60.250,384.033 62.125 C 385.054 62.801,387.448 62.799,388.470 62.123 L 389.167 61.662 389.167 62.091 C 389.167 62.485,389.218 62.516,389.792 62.468 L 390.417 62.417 390.417 58.667 L 390.417 54.917 389.792 54.865 C 389.228 54.818,389.167 54.853,389.167 55.214 L 389.167 55.616 388.357 55.215 C 387.313 54.698,386.005 54.596,384.873 54.942 M194.000 58.667 L 194.000 62.500 194.583 62.500 L 195.167 62.500 195.167 59.821 L 195.167 57.141 195.654 56.654 C 195.940 56.367,196.318 56.167,196.571 56.167 C 196.960 56.167,197.000 56.105,197.000 55.500 C 197.000 54.742,196.537 54.599,195.625 55.074 C 195.226 55.282,195.167 55.282,195.167 55.073 C 195.167 54.910,194.980 54.833,194.583 54.833 L 194.000 54.833 194.000 58.667 M199.333 59.146 L 199.333 63.478 198.875 63.531 C 198.049 63.626,198.200 64.756,199.036 64.732 C 200.599 64.685,200.715 64.230,200.634 58.500 L 200.583 54.917 199.958 54.865 L 199.333 54.813 199.333 59.146 M248.333 58.667 L 248.333 62.500 248.917 62.500 L 249.500 62.500 249.500 58.667 L 249.500 54.833 248.917 54.833 L 248.333 54.833 248.333 58.667 M308.167 58.667 L 308.167 62.500 308.833 62.500 L 309.500 62.500 309.500 58.667 L 309.500 54.833 308.833 54.833 L 308.167 54.833 308.167 58.667 M363.000 58.667 L 363.000 62.500 363.667 62.500 L 364.333 62.500 364.333 58.667 L 364.333 54.833 363.667 54.833 L 363.000 54.833 363.000 58.667 M189.096 56.771 C 190.142 58.005,190.151 58.000,187.151 58.000 C 184.263 58.000,184.250 57.995,184.813 57.073 C 185.609 55.767,188.097 55.592,189.096 56.771 M208.500 56.174 C 210.251 56.691,210.770 59.215,209.406 60.579 C 207.403 62.581,204.361 60.956,204.839 58.139 C 205.109 56.550,206.764 55.661,208.500 56.174 M267.927 56.508 C 268.320 56.874,268.833 57.668,268.833 57.908 C 268.833 57.959,267.640 58.000,266.182 58.000 C 263.192 58.000,263.184 57.995,264.183 56.782 C 264.744 56.103,265.019 56.015,266.453 56.064 C 267.294 56.092,267.572 56.175,267.927 56.508 M295.567 56.822 C 296.547 57.801,296.592 59.459,295.667 60.422 C 294.310 61.833,292.889 61.881,291.636 60.557 C 289.194 57.976,293.054 54.309,295.567 56.822 M342.317 56.514 C 343.908 57.691,343.706 60.044,341.923 61.088 C 339.149 62.714,336.567 58.862,338.943 56.641 C 339.753 55.885,341.383 55.824,342.317 56.514 M388.037 56.615 C 390.306 58.771,388.010 62.548,385.232 61.230 C 383.384 60.353,383.041 58.024,384.555 56.641 C 385.443 55.830,387.198 55.817,388.037 56.615 " stroke="none" fill="#353434" fill-rule="evenodd"></path><path id="path1" d="M356.013 17.958 C 355.921 18.302,355.656 19.296,355.423 20.167 C 355.191 21.037,355.001 21.845,355.000 21.961 C 355.000 22.127,355.980 22.163,359.617 22.128 L 364.235 22.083 364.771 20.167 C 365.067 19.112,365.350 18.044,365.400 17.792 L 365.492 17.333 360.836 17.333 L 356.180 17.333 356.013 17.958 M384.262 18.208 C 384.126 18.690,383.664 20.508,383.235 22.250 C 382.521 25.148,382.167 26.207,382.167 25.444 C 382.167 24.190,381.402 24.000,376.339 24.000 C 367.660 24.000,366.900 24.595,364.725 33.083 C 363.059 39.584,363.174 40.991,365.458 42.113 L 366.417 42.583 371.446 42.636 C 377.108 42.695,377.021 42.711,378.229 41.433 C 378.584 41.057,378.828 40.888,378.770 41.056 C 378.713 41.225,378.619 41.656,378.562 42.015 L 378.457 42.667 382.976 42.667 L 387.494 42.667 387.580 42.292 C 387.810 41.292,393.685 17.723,393.749 17.542 C 393.807 17.378,392.820 17.333,389.166 17.333 L 384.509 17.333 384.262 18.208 M354.349 24.625 C 354.258 24.969,353.243 29.000,352.092 33.583 C 350.942 38.167,349.954 42.085,349.897 42.292 L 349.794 42.667 354.481 42.667 C 357.058 42.667,359.167 42.632,359.167 42.590 C 359.167 42.547,360.178 38.479,361.413 33.548 C 362.649 28.617,363.692 24.452,363.731 24.292 C 363.797 24.019,363.497 24.000,359.157 24.000 L 354.513 24.000 354.349 24.625 M381.348 28.014 C 381.602 28.268,381.667 28.482,381.591 28.806 C 380.211 34.681,379.230 38.121,378.813 38.542 L 378.359 39.000 375.872 39.000 C 372.328 39.000,372.458 39.271,373.722 34.500 C 374.050 33.262,374.542 31.400,374.816 30.362 C 375.535 27.637,375.455 27.692,378.708 27.677 C 380.817 27.668,381.028 27.694,381.348 28.014 M337.599 39.125 C 337.177 40.844,336.832 42.345,336.832 42.461 C 336.833 42.627,337.813 42.663,341.444 42.628 L 346.055 42.583 346.772 39.667 C 347.166 38.063,347.530 36.581,347.581 36.375 L 347.673 36.000 343.020 36.000 L 338.366 36.000 337.599 39.125 " stroke="none" fill="#fbfbfb" fill-rule="evenodd"></path><path id="path2" d="M293.231 24.248 C 290.742 24.790,288.994 26.443,288.245 28.964 C 285.937 36.736,285.564 40.190,286.892 41.475 C 288.057 42.602,287.835 42.578,297.368 42.633 L 305.986 42.683 306.258 41.717 C 306.407 41.185,306.636 40.380,306.765 39.928 C 306.894 39.476,307.000 39.082,307.000 39.053 C 307.000 39.024,304.642 39.000,301.761 39.000 C 294.781 39.000,294.990 39.109,295.814 35.901 C 296.094 34.810,296.594 32.830,296.925 31.503 C 297.942 27.424,297.464 27.667,304.484 27.667 C 307.426 27.667,309.833 27.644,309.833 27.617 C 309.833 27.462,310.510 24.501,310.598 24.273 C 310.739 23.903,294.921 23.881,293.231 24.248 M316.333 24.224 C 313.181 24.925,312.446 26.073,310.657 33.083 C 308.931 39.844,308.964 41.038,310.905 42.115 L 311.750 42.583 320.333 42.634 C 334.099 42.716,333.664 42.986,336.144 32.833 C 337.709 26.429,337.648 25.533,335.583 24.500 L 334.750 24.083 326.000 24.052 C 319.604 24.028,317.003 24.075,316.333 24.224 M327.571 27.929 C 327.999 28.356,327.972 28.497,325.919 36.447 C 325.245 39.056,325.332 39.000,322.000 39.000 C 318.483 39.000,318.511 39.028,319.245 36.181 C 319.471 35.302,319.968 33.308,320.348 31.750 C 321.077 28.769,321.315 28.124,321.792 27.847 C 322.304 27.548,327.261 27.619,327.571 27.929 M274.022 36.542 C 273.929 36.840,273.586 38.171,273.260 39.500 C 272.934 40.829,272.621 42.085,272.564 42.292 L 272.461 42.667 277.118 42.667 L 281.774 42.667 282.605 39.333 L 283.437 36.000 278.815 36.000 L 274.193 36.000 274.022 36.542 " stroke="none" fill="#ea3434" fill-rule="evenodd"></path><path id="path3" d="M28.667 2.077 C 26.413 2.299,25.924 2.389,23.750 2.986 C 20.225 3.954,16.134 6.133,13.884 8.241 C 12.765 9.289,10.833 11.254,10.833 11.344 C 10.833 11.402,10.676 11.629,10.483 11.849 C 10.034 12.364,9.014 13.857,8.577 14.641 C 7.593 16.404,6.500 18.693,6.500 18.991 C 6.500 19.077,6.279 19.808,6.010 20.616 C 4.843 24.108,5.226 25.331,7.487 25.333 C 8.677 25.334,8.915 25.091,9.260 23.525 C 9.889 20.668,11.964 16.262,13.432 14.667 C 13.559 14.529,13.948 14.073,14.298 13.654 C 18.240 8.918,24.842 6.004,32.277 5.717 C 35.585 5.590,36.472 4.827,35.684 2.789 C 35.356 1.938,32.752 1.674,28.667 2.077 M28.083 10.078 C 27.992 10.106,27.279 10.261,26.500 10.423 C 21.599 11.441,17.239 15.527,15.752 20.493 C 15.165 22.456,15.239 23.009,16.165 23.556 C 17.458 24.319,18.415 23.777,18.914 22.000 C 20.349 16.882,24.949 13.541,30.607 13.509 C 32.593 13.497,32.905 13.285,32.905 11.947 C 32.905 10.727,32.617 10.417,31.266 10.182 C 30.308 10.015,28.481 9.955,28.083 10.078 M36.548 15.010 C 31.303 15.693,27.342 17.643,23.196 21.583 C 21.949 22.769,21.374 23.440,20.054 25.250 C 17.342 28.971,15.585 36.079,16.723 38.729 C 16.875 39.084,17.000 39.490,17.000 39.631 C 17.000 39.937,18.808 43.225,19.020 43.306 C 19.101 43.336,19.167 43.442,19.167 43.540 C 19.167 43.638,19.373 43.985,19.625 44.311 C 19.877 44.637,20.196 45.068,20.333 45.268 C 22.207 47.996,28.147 53.812,31.580 56.278 C 44.495 65.555,55.248 66.906,63.385 60.274 C 71.603 53.576,72.269 43.349,65.182 32.679 C 63.448 30.069,63.567 30.232,62.147 28.482 C 58.482 23.966,53.221 19.149,49.471 16.877 C 46.286 14.947,41.901 14.314,36.548 15.010 M164.806 19.677 C 164.370 21.350,164.251 22.043,164.392 22.097 C 164.500 22.138,166.575 22.152,169.003 22.128 L 173.417 22.083 173.797 20.750 C 174.007 20.017,174.275 18.948,174.394 18.375 L 174.610 17.333 170.013 17.333 L 165.417 17.333 164.806 19.677 M44.069 19.751 C 45.218 19.924,45.928 20.128,46.402 20.419 C 46.777 20.650,47.233 20.931,47.417 21.044 C 47.600 21.157,47.788 21.292,47.833 21.344 C 47.879 21.396,48.258 21.671,48.675 21.955 C 49.390 22.440,51.241 24.014,52.168 24.923 C 52.399 25.149,52.634 25.333,52.692 25.333 C 53.319 25.333,61.667 34.868,61.667 35.585 C 61.667 35.633,61.869 35.991,62.115 36.378 C 66.228 42.840,66.742 50.785,63.259 54.083 C 63.163 54.175,62.887 54.512,62.647 54.833 C 59.850 58.577,54.458 60.617,49.667 59.743 C 48.796 59.585,47.783 59.399,47.417 59.330 C 46.539 59.166,44.017 58.269,42.708 57.655 C 42.135 57.387,41.627 57.167,41.580 57.167 C 41.532 57.167,41.214 56.990,40.872 56.774 C 40.530 56.559,40.085 56.330,39.883 56.266 C 39.573 56.167,36.600 54.294,36.083 53.871 C 35.992 53.796,35.656 53.551,35.336 53.326 C 29.911 49.500,24.161 43.360,21.778 38.849 L 21.126 37.614 21.207 35.849 C 21.284 34.199,22.023 31.190,22.502 30.583 C 22.574 30.492,22.871 29.967,23.161 29.417 C 24.130 27.579,26.678 24.632,28.461 23.285 L 29.377 22.593 30.867 24.172 C 33.980 27.470,35.448 29.385,35.232 29.865 C 35.178 29.985,34.678 30.458,34.122 30.917 C 33.171 31.699,31.103 33.915,30.462 34.836 C 29.570 36.120,28.934 37.104,28.598 37.721 C 28.389 38.103,28.096 38.642,27.945 38.917 C 27.112 40.441,26.333 42.695,26.333 43.584 C 26.333 45.703,29.215 45.691,29.590 43.570 C 29.653 43.211,29.959 42.366,30.269 41.693 C 30.579 41.021,30.833 40.445,30.833 40.414 C 30.833 40.049,33.465 36.221,34.482 35.107 C 37.434 31.872,44.887 27.054,48.189 26.245 C 49.724 25.868,50.333 25.337,50.333 24.375 C 50.333 22.577,48.393 22.442,44.917 23.999 C 44.458 24.204,43.821 24.486,43.500 24.625 C 42.872 24.898,39.471 26.835,39.333 26.999 C 39.287 27.054,38.972 27.259,38.632 27.456 L 38.013 27.814 37.509 26.932 C 37.231 26.446,36.827 25.869,36.612 25.650 C 36.396 25.430,36.150 25.121,36.065 24.964 C 35.979 24.807,35.161 23.877,34.247 22.897 C 32.230 20.739,32.305 20.925,33.319 20.588 C 36.108 19.662,40.966 19.283,44.069 19.751 M231.447 20.875 C 231.313 21.356,231.153 21.975,231.092 22.250 C 231.031 22.525,230.908 23.029,230.819 23.370 L 230.657 23.990 228.709 24.036 L 226.762 24.083 226.400 25.348 C 226.201 26.043,225.986 26.849,225.923 27.139 L 225.807 27.667 227.737 27.667 C 228.829 27.667,229.667 27.735,229.667 27.823 C 229.667 27.996,229.080 30.392,227.951 34.833 C 226.809 39.327,226.800 39.944,227.864 41.235 C 228.993 42.604,228.858 42.583,236.746 42.583 L 243.742 42.583 244.112 41.167 C 244.315 40.387,244.486 39.581,244.491 39.375 L 244.500 39.000 240.762 39.000 C 236.827 39.000,236.500 38.939,236.500 38.211 C 236.500 37.947,237.537 33.607,238.532 29.708 L 239.052 27.667 242.770 27.667 L 246.487 27.667 246.650 27.042 C 247.126 25.218,247.333 24.350,247.333 24.184 C 247.333 24.055,246.230 24.000,243.653 24.000 L 239.974 24.000 240.084 23.458 C 240.145 23.160,240.371 22.260,240.586 21.458 L 240.977 20.000 236.333 20.000 L 231.690 20.000 231.447 20.875 M86.522 24.542 C 86.428 24.840,86.203 25.683,86.020 26.417 C 85.838 27.150,85.462 28.650,85.185 29.750 C 83.407 36.802,82.612 40.000,82.491 40.583 C 82.415 40.950,81.899 43.032,81.343 45.209 C 80.788 47.386,80.333 49.280,80.333 49.417 C 80.333 49.633,80.959 49.667,84.917 49.667 C 87.438 49.667,89.500 49.643,89.500 49.613 C 89.500 49.455,91.705 40.906,91.760 40.851 C 91.796 40.815,91.869 40.928,91.922 41.101 C 92.392 42.641,92.467 42.661,97.594 42.664 C 106.080 42.669,107.180 41.908,108.913 34.833 C 109.328 33.137,109.864 31.020,110.103 30.127 C 110.918 27.095,110.474 25.503,108.550 24.558 L 107.583 24.083 102.756 24.026 C 97.227 23.961,97.018 23.994,95.786 25.138 L 94.948 25.917 95.049 25.394 C 95.105 25.107,95.200 24.676,95.260 24.436 L 95.369 24.000 91.031 24.000 L 86.693 24.000 86.522 24.542 M114.398 24.458 C 114.338 24.710,113.324 28.769,112.145 33.477 C 110.965 38.186,110.000 42.180,110.000 42.352 C 110.000 42.694,118.862 42.859,119.070 42.521 C 119.175 42.352,120.925 35.586,121.271 34.016 C 122.251 29.559,122.634 29.276,127.777 29.194 L 131.304 29.138 131.578 27.944 C 131.729 27.287,131.963 26.262,132.100 25.667 C 132.236 25.071,132.390 24.443,132.442 24.271 C 132.575 23.826,126.729 23.951,125.428 24.422 C 124.624 24.712,123.091 26.021,122.702 26.749 C 122.331 27.444,122.296 26.786,122.641 25.599 C 122.838 24.919,123.000 24.281,123.000 24.181 C 123.000 24.055,121.698 24.000,118.753 24.000 L 114.506 24.000 114.398 24.458 M138.657 24.164 C 135.585 24.701,134.440 26.247,133.077 31.697 C 132.657 33.376,132.125 35.462,131.894 36.333 C 131.060 39.482,131.264 41.036,132.631 41.944 C 133.628 42.607,134.488 42.667,142.978 42.667 C 156.038 42.667,155.701 42.882,158.152 32.976 C 159.793 26.345,159.713 25.420,157.414 24.383 C 156.691 24.057,140.361 23.866,138.657 24.164 M163.583 24.375 C 162.469 29.002,158.474 44.737,158.358 44.953 C 158.269 45.116,157.997 45.438,157.752 45.667 L 157.307 46.083 153.324 46.136 L 149.340 46.188 149.159 46.886 C 149.059 47.269,148.839 48.056,148.669 48.633 L 148.361 49.683 155.805 49.633 C 167.450 49.555,166.381 50.699,170.497 33.917 C 171.419 30.158,172.353 26.390,172.573 25.542 L 172.973 24.000 168.323 24.000 L 163.673 24.000 163.583 24.375 M179.704 24.181 C 177.185 24.613,175.466 26.538,174.778 29.697 C 174.455 31.181,173.704 34.148,173.204 35.917 C 172.214 39.421,172.529 41.306,174.250 42.167 L 175.083 42.583 185.609 42.632 L 196.136 42.681 196.493 41.132 C 196.690 40.280,196.888 39.454,196.935 39.297 C 197.014 39.030,196.536 39.007,189.829 38.963 C 181.311 38.908,181.587 39.011,182.423 36.199 L 182.679 35.337 190.546 35.293 L 198.413 35.250 198.685 34.000 C 198.834 33.313,199.194 31.850,199.485 30.750 C 200.547 26.727,200.355 25.444,198.561 24.563 L 197.583 24.083 189.083 24.057 C 184.408 24.042,180.188 24.098,179.704 24.181 M207.674 24.190 C 204.169 24.771,203.051 26.302,201.409 32.769 C 199.641 39.738,199.751 41.118,202.167 42.236 C 203.265 42.745,220.079 42.882,220.229 42.383 C 220.592 41.175,221.000 39.540,221.000 39.295 C 221.000 39.019,220.658 39.000,215.659 39.000 L 210.318 39.000 209.909 38.591 C 209.378 38.060,209.332 38.411,210.604 33.336 C 212.163 27.117,211.382 27.667,218.654 27.667 L 223.985 27.667 224.092 27.042 C 224.152 26.698,224.335 25.873,224.500 25.208 L 224.799 24.000 216.691 24.019 C 212.232 24.030,208.174 24.107,207.674 24.190 M254.877 24.252 C 252.118 24.852,250.485 26.382,249.696 29.110 C 248.561 33.031,248.430 34.217,249.011 35.354 C 249.674 36.655,250.079 36.737,256.284 36.833 C 262.223 36.926,262.102 36.901,261.919 37.983 C 261.685 39.372,261.909 39.333,254.018 39.333 L 247.080 39.333 246.752 40.708 C 246.572 41.465,246.398 42.215,246.367 42.375 C 246.297 42.734,263.880 42.830,265.533 42.479 C 268.544 41.841,269.946 40.182,271.084 35.917 C 272.094 32.126,271.920 31.011,270.176 30.125 L 269.274 29.667 264.262 29.650 C 261.505 29.641,259.063 29.580,258.833 29.514 C 258.228 29.341,258.272 28.262,258.906 27.717 L 259.352 27.333 266.253 27.333 L 273.154 27.333 273.322 26.708 C 273.415 26.365,273.604 25.708,273.744 25.250 C 273.883 24.792,273.997 24.323,273.998 24.208 C 274.001 23.894,256.338 23.935,254.877 24.252 M100.905 27.929 C 101.276 28.299,101.281 28.263,100.075 33.124 C 98.476 39.564,98.920 39.000,95.450 39.000 C 92.658 39.000,92.500 38.950,92.500 38.067 C 92.500 36.807,94.798 28.435,95.252 28.042 C 95.818 27.551,100.435 27.459,100.905 27.929 M149.511 27.839 C 150.046 28.126,149.978 28.632,148.822 33.000 C 148.567 33.962,148.309 35.012,148.248 35.333 C 147.596 38.799,147.368 39.000,144.080 39.000 C 140.544 39.000,140.592 39.037,141.161 36.740 C 141.341 36.012,141.835 33.992,142.258 32.250 C 143.100 28.783,143.376 28.041,143.901 27.829 C 144.407 27.624,149.126 27.633,149.511 27.839 M190.633 27.867 C 190.910 28.143,190.861 29.388,190.528 30.583 L 190.248 31.583 186.949 31.629 L 183.650 31.674 183.757 31.045 C 184.296 27.863,184.537 27.667,187.896 27.667 C 189.647 27.667,190.495 27.729,190.633 27.867 " stroke="none" fill="#f38434" fill-rule="evenodd"></path><path id="path4" d="M169.946 17.292 L 174.642 17.338 174.488 17.876 C 174.258 18.679,174.335 18.855,174.579 18.083 C 174.881 17.127,175.072 17.163,169.948 17.206 L 165.250 17.245 169.946 17.292 M356.111 17.278 C 356.050 17.339,356.001 17.470,356.003 17.569 C 356.004 17.673,356.063 17.659,356.141 17.536 C 356.247 17.369,357.292 17.333,360.956 17.370 C 363.529 17.396,365.600 17.360,365.558 17.292 C 365.462 17.137,356.265 17.124,356.111 17.278 M384.444 17.278 C 384.383 17.339,384.334 17.470,384.336 17.569 C 384.337 17.678,384.390 17.669,384.469 17.544 C 384.566 17.391,385.789 17.327,389.258 17.292 L 393.917 17.245 389.236 17.206 C 386.662 17.184,384.506 17.217,384.444 17.278 M233.958 19.958 C 235.265 19.986,237.402 19.986,238.708 19.958 C 240.015 19.930,238.946 19.907,236.333 19.907 C 233.721 19.907,232.652 19.930,233.958 19.958 M240.333 22.333 C 240.221 22.802,240.162 23.218,240.203 23.258 C 240.243 23.299,240.365 22.946,240.474 22.474 C 240.583 22.003,240.642 21.586,240.605 21.549 C 240.568 21.512,240.446 21.865,240.333 22.333 M230.697 23.197 C 230.598 23.587,230.546 23.935,230.581 23.970 C 230.616 24.005,230.730 23.719,230.833 23.333 C 230.937 22.948,230.989 22.600,230.949 22.561 C 230.910 22.521,230.796 22.807,230.697 23.197 M95.750 25.000 C 95.400 25.366,95.234 25.444,95.138 25.292 C 95.051 25.156,95.004 25.225,95.003 25.492 C 95.000 25.885,95.026 25.876,95.667 25.250 C 96.033 24.892,96.333 24.577,96.333 24.550 C 96.333 24.428,96.197 24.533,95.750 25.000 M224.345 25.762 C 224.231 26.274,224.169 26.725,224.208 26.764 C 224.248 26.803,224.374 26.417,224.488 25.905 C 224.603 25.393,224.664 24.942,224.625 24.903 C 224.586 24.863,224.460 25.250,224.345 25.762 M123.573 25.542 L 123.083 26.083 123.625 25.594 C 123.923 25.325,124.167 25.081,124.167 25.052 C 124.167 24.923,124.029 25.037,123.573 25.542 M132.012 25.929 C 131.897 26.440,131.836 26.891,131.875 26.931 C 131.914 26.970,132.040 26.583,132.155 26.071 C 132.269 25.560,132.331 25.109,132.292 25.069 C 132.252 25.030,132.126 25.417,132.012 25.929 M135.491 25.625 L 134.917 26.250 135.542 25.676 C 136.123 25.141,136.243 25.000,136.116 25.000 C 136.088 25.000,135.807 25.281,135.491 25.625 M176.658 25.625 L 176.083 26.250 176.708 25.676 C 177.290 25.141,177.410 25.000,177.283 25.000 C 177.255 25.000,176.974 25.281,176.658 25.625 M199.856 25.708 C 199.967 25.915,200.109 26.533,200.173 27.083 L 200.288 28.083 200.311 27.286 C 200.332 26.553,199.983 25.333,199.753 25.333 C 199.699 25.333,199.746 25.502,199.856 25.708 M203.991 25.958 L 203.417 26.583 204.042 26.009 C 204.623 25.474,204.743 25.333,204.616 25.333 C 204.588 25.333,204.307 25.615,203.991 25.958 M172.333 26.333 C 172.221 26.802,172.162 27.218,172.203 27.258 C 172.243 27.299,172.365 26.946,172.474 26.474 C 172.583 26.003,172.642 25.586,172.605 25.549 C 172.568 25.512,172.446 25.865,172.333 26.333 M251.075 26.208 L 250.417 26.917 251.125 26.258 C 251.515 25.895,251.833 25.577,251.833 25.550 C 251.833 25.423,251.688 25.550,251.075 26.208 M122.438 26.208 C 122.302 26.719,122.309 27.000,122.458 26.999 C 122.527 26.999,122.597 26.736,122.613 26.416 C 122.647 25.746,122.583 25.669,122.438 26.208 M162.750 27.167 C 162.687 27.455,162.670 27.725,162.712 27.768 C 162.755 27.810,162.837 27.605,162.896 27.313 C 163.035 26.618,162.900 26.483,162.750 27.167 M273.167 27.139 C 273.167 27.283,271.376 27.344,266.208 27.373 L 259.250 27.413 266.156 27.458 C 272.652 27.501,273.666 27.444,273.281 27.058 C 273.218 26.996,273.167 27.032,273.167 27.139 M110.539 27.833 C 110.539 28.154,110.573 28.285,110.615 28.125 C 110.657 27.965,110.657 27.702,110.615 27.542 C 110.573 27.381,110.539 27.512,110.539 27.833 M249.853 28.016 C 249.750 28.310,249.672 28.632,249.678 28.733 C 249.685 28.834,249.798 28.623,249.929 28.265 C 250.060 27.906,250.139 27.583,250.103 27.548 C 250.068 27.512,249.955 27.723,249.853 28.016 M85.359 28.526 C 85.250 28.997,85.191 29.414,85.228 29.451 C 85.265 29.488,85.388 29.135,85.500 28.667 C 85.612 28.198,85.671 27.782,85.631 27.742 C 85.590 27.701,85.468 28.054,85.359 28.526 M95.012 28.272 C 94.822 28.514,94.671 28.833,94.677 28.981 C 94.684 29.144,94.753 29.087,94.853 28.837 C 94.943 28.609,95.138 28.291,95.285 28.128 C 95.431 27.966,95.508 27.833,95.455 27.833 C 95.401 27.833,95.202 28.031,95.012 28.272 M212.310 28.177 L 211.917 28.520 212.417 28.227 C 213.075 27.842,213.085 27.833,212.880 27.833 C 212.783 27.833,212.527 27.988,212.310 28.177 M258.488 28.281 C 258.270 28.855,258.348 29.372,258.667 29.458 C 258.885 29.517,258.886 29.504,258.671 29.355 C 258.471 29.216,258.459 29.062,258.607 28.509 C 258.811 27.742,258.743 27.610,258.488 28.281 M101.039 28.667 C 101.039 28.988,101.073 29.119,101.115 28.958 C 101.157 28.798,101.157 28.535,101.115 28.375 C 101.073 28.215,101.039 28.346,101.039 28.667 M288.095 28.929 C 288.034 29.173,288.016 29.405,288.055 29.444 C 288.094 29.483,288.177 29.316,288.238 29.071 C 288.299 28.827,288.317 28.595,288.278 28.556 C 288.239 28.517,288.157 28.684,288.095 28.929 M184.014 29.764 C 183.906 30.191,183.850 30.572,183.888 30.610 C 183.926 30.648,184.045 30.330,184.153 29.903 C 184.260 29.476,184.317 29.095,184.279 29.057 C 184.241 29.018,184.121 29.337,184.014 29.764 M202.083 29.500 C 202.020 29.788,202.003 30.059,202.045 30.101 C 202.088 30.143,202.171 29.939,202.229 29.646 C 202.368 28.951,202.233 28.816,202.083 29.500 M126.467 29.291 C 127.412 29.321,128.912 29.321,129.801 29.291 C 130.689 29.261,129.917 29.237,128.083 29.237 C 126.250 29.237,125.523 29.261,126.467 29.291 M174.514 30.264 C 174.406 30.691,174.350 31.072,174.388 31.110 C 174.426 31.148,174.545 30.830,174.653 30.403 C 174.760 29.976,174.817 29.595,174.779 29.557 C 174.741 29.518,174.621 29.837,174.514 30.264 M261.542 29.625 C 262.894 29.653,265.106 29.653,266.458 29.625 C 267.810 29.597,266.704 29.574,264.000 29.574 C 261.296 29.574,260.190 29.597,261.542 29.625 M190.417 30.333 C 190.353 30.621,190.336 30.892,190.379 30.934 C 190.421 30.977,190.504 30.772,190.563 30.479 C 190.701 29.784,190.567 29.650,190.417 30.333 M270.250 30.111 C 270.525 30.256,270.899 30.497,271.080 30.646 C 271.393 30.902,271.398 30.900,271.176 30.614 C 270.940 30.311,270.133 29.827,269.883 29.840 C 269.810 29.844,269.975 29.966,270.250 30.111 M238.167 31.000 C 238.054 31.468,237.996 31.884,238.036 31.925 C 238.077 31.965,238.199 31.613,238.308 31.141 C 238.417 30.669,238.475 30.253,238.438 30.216 C 238.401 30.179,238.279 30.532,238.167 31.000 M161.750 31.167 C 161.687 31.455,161.670 31.725,161.712 31.768 C 161.755 31.810,161.837 31.605,161.896 31.313 C 162.035 30.618,161.900 30.483,161.750 31.167 M109.750 31.333 C 109.687 31.621,109.670 31.892,109.712 31.934 C 109.755 31.977,109.837 31.772,109.896 31.479 C 110.035 30.784,109.900 30.650,109.750 31.333 M149.014 31.764 C 148.906 32.191,148.850 32.572,148.888 32.610 C 148.926 32.648,149.045 32.330,149.153 31.903 C 149.260 31.476,149.317 31.095,149.279 31.057 C 149.241 31.018,149.121 31.337,149.014 31.764 M228.604 31.688 C 228.465 32.382,228.600 32.517,228.750 31.833 C 228.813 31.545,228.830 31.275,228.788 31.232 C 228.745 31.190,228.663 31.395,228.604 31.688 M93.917 31.833 C 93.853 32.121,93.836 32.392,93.879 32.434 C 93.921 32.477,94.004 32.272,94.063 31.979 C 94.201 31.284,94.067 31.150,93.917 31.833 M121.500 33.000 C 121.388 33.468,121.329 33.884,121.369 33.925 C 121.410 33.965,121.532 33.613,121.641 33.141 C 121.750 32.669,121.809 32.253,121.772 32.216 C 121.735 32.179,121.612 32.532,121.500 33.000 M296.583 32.667 C 296.520 32.955,296.503 33.225,296.545 33.268 C 296.588 33.310,296.671 33.105,296.729 32.813 C 296.868 32.118,296.733 31.983,296.583 32.667 M84.259 32.926 C 84.197 33.260,84.179 33.567,84.219 33.608 C 84.260 33.649,84.345 33.409,84.407 33.074 C 84.470 32.740,84.488 32.433,84.447 32.392 C 84.407 32.351,84.322 32.591,84.259 32.926 M198.847 33.097 C 198.740 33.524,198.683 33.905,198.721 33.943 C 198.759 33.982,198.879 33.663,198.986 33.236 C 199.094 32.809,199.150 32.428,199.112 32.390 C 199.074 32.352,198.955 32.670,198.847 33.097 M201.083 33.500 C 201.020 33.788,201.003 34.059,201.045 34.101 C 201.088 34.143,201.171 33.939,201.229 33.646 C 201.368 32.951,201.233 32.816,201.083 33.500 M173.426 34.593 C 173.363 34.927,173.345 35.234,173.386 35.275 C 173.427 35.316,173.511 35.075,173.574 34.741 C 173.637 34.406,173.655 34.099,173.614 34.059 C 173.573 34.018,173.489 34.258,173.426 34.593 M170.271 34.688 C 170.132 35.382,170.267 35.517,170.417 34.833 C 170.480 34.545,170.497 34.275,170.455 34.232 C 170.412 34.190,170.329 34.395,170.271 34.688 M141.583 34.833 C 141.520 35.121,141.503 35.392,141.545 35.434 C 141.588 35.477,141.671 35.272,141.729 34.979 C 141.868 34.284,141.733 34.150,141.583 34.833 M132.104 35.021 C 131.965 35.716,132.100 35.850,132.250 35.167 C 132.313 34.879,132.330 34.608,132.288 34.566 C 132.245 34.523,132.163 34.728,132.104 35.021 M157.604 35.021 C 157.465 35.716,157.600 35.850,157.750 35.167 C 157.813 34.879,157.830 34.608,157.788 34.566 C 157.745 34.523,157.663 34.728,157.604 35.021 M99.167 36.167 C 99.054 36.635,98.996 37.051,99.036 37.092 C 99.077 37.132,99.199 36.779,99.308 36.308 C 99.417 35.836,99.475 35.420,99.438 35.383 C 99.401 35.346,99.279 35.698,99.167 36.167 M147.938 36.021 C 147.799 36.716,147.933 36.850,148.083 36.167 C 148.147 35.879,148.164 35.608,148.121 35.566 C 148.079 35.523,147.996 35.728,147.938 36.021 M92.692 36.692 C 92.583 37.164,92.525 37.580,92.562 37.617 C 92.599 37.654,92.721 37.302,92.833 36.833 C 92.946 36.365,93.004 35.949,92.964 35.908 C 92.923 35.868,92.801 36.221,92.692 36.692 M340.625 35.958 C 341.931 35.986,344.069 35.986,345.375 35.958 C 346.681 35.930,345.613 35.907,343.000 35.907 C 340.387 35.907,339.319 35.930,340.625 35.958 M249.762 36.353 C 249.864 36.518,250.964 36.874,251.156 36.805 C 251.240 36.775,250.944 36.633,250.498 36.491 C 250.052 36.348,249.721 36.286,249.762 36.353 M83.259 36.926 C 83.197 37.260,83.179 37.567,83.219 37.608 C 83.260 37.649,83.345 37.409,83.407 37.074 C 83.470 36.740,83.488 36.433,83.447 36.392 C 83.407 36.351,83.322 36.591,83.259 36.926 M120.359 37.526 C 120.250 37.997,120.191 38.414,120.228 38.451 C 120.265 38.488,120.388 38.135,120.500 37.667 C 120.612 37.198,120.671 36.782,120.631 36.742 C 120.590 36.701,120.468 37.054,120.359 37.526 M254.385 36.958 C 255.743 36.986,257.918 36.986,259.219 36.958 C 260.519 36.930,259.408 36.907,256.750 36.907 C 254.092 36.907,253.028 36.930,254.385 36.958 M261.814 37.536 C 261.890 37.999,261.914 38.023,261.966 37.689 C 262.000 37.472,261.960 37.226,261.876 37.142 C 261.783 37.050,261.759 37.205,261.814 37.536 M110.833 38.167 C 110.721 38.635,110.662 39.051,110.703 39.092 C 110.743 39.132,110.865 38.779,110.974 38.308 C 111.083 37.836,111.142 37.420,111.105 37.383 C 111.068 37.346,110.946 37.698,110.833 38.167 M295.348 37.773 C 295.340 37.969,295.465 38.273,295.625 38.448 C 295.785 38.623,295.855 38.673,295.780 38.560 C 295.705 38.447,295.580 38.144,295.503 37.886 C 295.389 37.505,295.359 37.484,295.348 37.773 M200.053 38.833 C 200.053 39.429,200.084 39.673,200.121 39.375 C 200.158 39.077,200.158 38.590,200.121 38.292 C 200.084 37.994,200.053 38.237,200.053 38.833 M285.883 38.833 C 285.883 39.337,285.915 39.544,285.953 39.292 C 285.991 39.040,285.991 38.627,285.953 38.375 C 285.915 38.123,285.883 38.329,285.883 38.833 M261.680 38.320 C 261.673 38.450,261.538 38.713,261.381 38.904 C 261.112 39.230,261.118 39.230,261.484 38.892 C 261.698 38.696,261.832 38.433,261.783 38.309 C 261.710 38.126,261.690 38.128,261.680 38.320 M169.181 39.097 C 169.073 39.524,169.016 39.905,169.054 39.943 C 169.093 39.982,169.212 39.663,169.319 39.236 C 169.427 38.809,169.484 38.428,169.446 38.390 C 169.407 38.352,169.288 38.670,169.181 39.097 M172.555 39.417 C 172.555 40.058,172.586 40.300,172.622 39.955 C 172.658 39.609,172.657 39.084,172.620 38.788 C 172.583 38.492,172.554 38.775,172.555 39.417 M97.917 38.756 C 97.642 38.882,97.534 38.988,97.676 38.992 C 97.819 38.997,98.082 38.890,98.260 38.755 C 98.655 38.456,98.570 38.457,97.917 38.756 M269.949 39.252 C 269.797 39.572,269.706 39.833,269.748 39.833 C 269.862 39.833,270.368 38.813,270.292 38.737 C 270.256 38.700,270.102 38.932,269.949 39.252 M250.636 39.292 C 252.590 39.318,255.740 39.318,257.636 39.291 C 259.532 39.265,257.933 39.243,254.083 39.243 C 250.233 39.243,248.682 39.265,250.636 39.292 M196.771 39.854 C 196.632 40.549,196.767 40.684,196.917 40.000 C 196.980 39.712,196.997 39.441,196.955 39.399 C 196.912 39.357,196.829 39.561,196.771 39.854 M246.583 40.833 C 246.520 41.121,246.503 41.392,246.545 41.434 C 246.588 41.477,246.671 41.272,246.729 40.979 C 246.868 40.284,246.733 40.150,246.583 40.833 M268.740 40.875 L 268.250 41.417 268.792 40.927 C 269.297 40.471,269.410 40.333,269.281 40.333 C 269.252 40.333,269.009 40.577,268.740 40.875 M333.075 41.042 L 332.417 41.750 333.125 41.091 C 333.515 40.729,333.833 40.410,333.833 40.383 C 333.833 40.257,333.688 40.383,333.075 41.042 M82.250 41.000 C 82.187 41.288,82.170 41.559,82.212 41.601 C 82.255 41.643,82.337 41.439,82.396 41.146 C 82.535 40.451,82.400 40.316,82.250 41.000 M227.464 40.917 C 227.559 41.100,227.849 41.437,228.110 41.666 L 228.583 42.082 228.085 41.499 C 227.294 40.576,227.283 40.566,227.464 40.917 M91.667 40.912 C 91.667 41.202,92.157 42.117,92.428 42.333 C 92.672 42.528,92.659 42.477,92.371 42.103 C 92.167 41.838,92.000 41.486,92.000 41.321 C 92.000 41.155,91.925 40.973,91.833 40.917 C 91.742 40.860,91.667 40.858,91.667 40.912 M119.224 42.000 C 119.128 42.361,119.107 42.620,119.178 42.576 C 119.326 42.485,119.566 41.510,119.466 41.410 C 119.429 41.374,119.321 41.639,119.224 42.000 M154.083 41.763 C 153.717 41.982,153.492 42.162,153.583 42.163 C 153.784 42.166,154.833 41.541,154.833 41.419 C 154.833 41.310,154.868 41.294,154.083 41.763 M267.417 41.763 C 267.050 41.982,266.825 42.162,266.917 42.163 C 267.117 42.166,268.167 41.541,268.167 41.419 C 268.167 41.310,268.201 41.294,267.417 41.763 M336.750 42.000 C 336.687 42.288,336.670 42.559,336.712 42.601 C 336.755 42.643,336.837 42.439,336.896 42.146 C 337.035 41.451,336.900 41.316,336.750 42.000 M158.595 43.762 C 158.534 44.006,158.516 44.238,158.555 44.277 C 158.594 44.317,158.677 44.149,158.738 43.905 C 158.799 43.661,158.817 43.429,158.778 43.389 C 158.739 43.350,158.657 43.518,158.595 43.762 M81.167 45.333 C 81.054 45.802,80.996 46.218,81.036 46.258 C 81.077 46.299,81.199 45.946,81.308 45.474 C 81.417 45.003,81.475 44.586,81.438 44.549 C 81.401 44.512,81.279 44.865,81.167 45.333 M149.169 46.292 C 149.171 46.496,149.211 46.522,149.302 46.378 C 149.397 46.228,150.439 46.160,153.174 46.125 L 156.917 46.077 153.042 46.038 C 149.447 46.003,149.167 46.021,149.169 46.292 M166.949 46.585 C 166.797 46.905,166.706 47.167,166.748 47.167 C 166.862 47.167,167.368 46.146,167.292 46.070 C 167.256 46.034,167.102 46.266,166.949 46.585 M89.604 49.021 C 89.465 49.716,89.600 49.850,89.750 49.167 C 89.813 48.879,89.830 48.608,89.788 48.566 C 89.745 48.523,89.663 48.728,89.604 49.021 M164.167 49.175 C 163.754 49.344,163.513 49.486,163.630 49.491 C 163.900 49.502,165.000 49.048,165.000 48.925 C 165.000 48.875,164.981 48.841,164.958 48.851 C 164.935 48.860,164.579 49.006,164.167 49.175 " stroke="none" fill="#985e35" fill-rule="evenodd"></path></g></svg>